PathFileType	4	(X/Y/Z)	G:\Shared drives\HIT\Data\HapticPilot\Subject1\Edited\LHJC1.trc
DataRate	CameraRate	NumFrames	NumMarkers	Units	OrigDataRate	OrigDataStartFrame	OrigNumFrames
50.00	50.00	       7	38	mm	50.00	514	       684
Frame#	Time	r_knee			r_shank(antsup)			r_ankle			r_calc			r_5meta			r_toe			L_knee			L_shank(ant_sup)			L_ankle			L_calc			L_5meta			L_toe			r_mknee			r_mankle			L_mknee			L_mankle			r_sh2			r_sh3			r_sh4			L_sh2			L_sh3			r_thigh1			r_thigh2			r_thigh3			r_thigh4			r_thigh5			L_thigh1			L_thigh2			L_thigh3			L_thigh4			r.ASIS			r.PSIS			L.ASIS			L.PSIS			C7			R_Shoulder			L_Shoulder			Sternum			
		X1	Y1	Z1	X2	Y2	Z2	X3	Y3	Z3	X4	Y4	Z4	X5	Y5	Z5	X6	Y6	Z6	X7	Y7	Z7	X8	Y8	Z8	X9	Y9	Z9	X10	Y10	Z10	X11	Y11	Z11	X12	Y12	Z12	X13	Y13	Z13	X14	Y14	Z14	X15	Y15	Z15	X16	Y16	Z16	X17	Y17	Z17	X18	Y18	Z18	X19	Y19	Z19	X20	Y20	Z20	X21	Y21	Z21	X22	Y22	Z22	X23	Y23	Z23	X24	Y24	Z24	X25	Y25	Z25	X26	Y26	Z26	X27	Y27	Z27	X28	Y28	Z28	X29	Y29	Z29	X30	Y30	Z30	X31	Y31	Z31	X32	Y32	Z32	X33	Y33	Z33	X34	Y34	Z34	X35	Y35	Z35	X36	Y36	Z36	X37	Y37	Z37	X38	Y38	Z38	

514	10.260	757.52960	243.67276	571.36682	770.09009	243.44551	482.05783	709.21741	282.36899	110.62312	621.14172	332.78519	69.00225	817.44727	249.94051	39.30124	861.30255	309.75116	73.58674	650.39587	541.20563	592.43530	600.71643	528.62347	481.45776	303.84753	491.46051	291.52570	220.86140	434.13141	312.34219	339.03445	524.31433	155.98300	394.74274	469.73874	152.44563	753.48083	371.51642	561.01599	724.42096	376.78775	120.07369	683.83667	420.43314	571.56439	335.18710	401.17938	280.46017	763.96838	253.58339	362.49997	694.86487	232.76709	482.87537	681.12488	238.40387	367.16577	550.19086	547.83533	554.01013	457.13608	537.26434	474.53320	829.55316	219.43022	896.12555	832.14996	225.14822	781.45093	788.62415	213.28763	747.61194	720.42242	186.37439	886.53754	726.34509	211.29512	769.94159	788.34094	563.20593	843.26031	767.81372	561.16376	705.58972	672.20508	563.99561	861.54163	658.03094	551.06714	725.90692	862.06812	255.76025	1075.72424	675.44012	328.92615	1140.22986	855.26636	510.98517	1093.73584	678.02979	411.68945	1144.53979	732.98065	367.73795	1617.70691	798.08313	198.93523	1591.63208	792.83673	547.11041	1580.13806	869.12903	365.07230	1540.02173	
515	10.280	758.24683	244.06029	571.30170	770.71155	243.72990	481.91428	709.25995	282.48303	110.66278	621.19318	332.87241	69.11017	817.48145	249.54091	39.68071	861.36694	309.77371	73.45367	665.35522	542.17517	589.34137	618.76752	529.46924	477.39285	326.65967	494.28668	279.60657	242.86771	437.73727	297.93524	366.25024	526.98151	145.15024	421.59723	471.88806	143.31416	754.59094	371.89307	560.87689	724.59265	376.92050	120.03452	697.94446	420.48343	569.95038	357.93073	404.04889	269.51367	764.38196	253.76166	362.43484	695.51184	233.16901	482.89014	681.61523	238.77751	367.30139	566.41571	549.58765	548.32104	475.69025	539.52802	466.34909	829.93738	219.25487	896.23090	833.38129	225.27684	781.72443	789.15436	213.54050	747.70868	720.72522	186.55965	886.50037	726.88611	211.54259	769.98578	795.75000	562.75702	844.28723	779.60925	560.98273	706.35730	679.31061	564.91089	858.54785	669.05304	551.99042	723.18182	861.05127	255.02446	1076.80225	674.12787	329.33856	1138.70715	854.99835	509.84573	1095.62817	676.86584	412.27975	1142.92749	730.21863	366.99316	1617.95776	795.79108	198.26620	1592.06030	789.51282	546.61444	1580.46338	866.61560	364.75409	1540.70508	
516	10.300	758.76447	244.45975	571.31030	771.44592	244.04495	481.86853	709.33527	282.60895	110.72398	621.25159	332.94766	69.19945	817.48572	249.55350	39.65945	861.41931	309.77274	73.38767	680.55493	542.89514	586.51434	636.56604	530.10449	473.80865	349.47546	497.35129	268.41733	264.51181	441.97495	284.49927	394.00064	529.87299	135.49413	447.96463	473.87457	135.20979	755.50397	372.40936	560.83588	724.71063	376.45959	119.91222	711.91638	420.47421	568.75952	380.09760	406.75620	259.47507	764.99536	254.08656	362.38834	696.17285	233.70694	482.95117	682.04254	239.27820	367.43225	581.82367	551.41553	543.64874	494.44406	541.86127	459.10159	830.00446	219.18680	896.39587	833.96094	225.24644	781.77600	789.46362	213.79831	747.79797	720.86304	186.90692	886.41870	727.13690	211.80298	769.97345	803.32562	562.35187	845.39673	791.12061	560.77618	706.93188	686.92242	565.87976	856.70099	680.15485	552.72278	720.78925	859.80157	254.46947	1077.94189	672.55237	329.90842	1137.63721	855.54553	508.73230	1097.97351	675.48560	412.95197	1141.83130	727.57318	366.19226	1618.14783	793.60333	197.71565	1592.31140	786.63934	545.96844	1580.72961	864.12378	364.24573	1541.42151	
517	10.320	760.21301	245.27995	571.38885	772.40265	244.43953	481.78055	709.52533	282.83649	110.84513	621.32593	333.08426	69.43675	817.53326	249.57274	39.66550	861.53131	309.74280	73.36634	695.21387	543.48688	584.22107	654.19122	530.71332	470.87360	371.95825	500.57709	258.66724	285.77432	446.26645	272.40921	420.23785	532.12964	126.84383	473.97882	475.66095	128.36386	756.90173	373.18967	560.97449	725.01801	377.18466	119.92219	725.93225	420.71451	567.72290	401.54861	409.75430	250.75052	765.70569	254.56244	362.25403	697.32953	234.37845	483.01126	682.97345	239.85249	367.59473	598.22052	552.65576	539.15485	512.12085	543.96405	452.68134	829.92639	218.95638	896.51288	834.25739	225.24538	782.00562	789.70258	214.03963	747.81775	720.51355	187.28227	886.17212	727.25232	212.25653	769.79114	810.79980	561.70868	846.48700	802.28381	560.33112	707.91656	694.20276	566.58008	854.81689	691.10834	553.19623	718.51038	858.67963	253.61029	1079.23279	671.01678	330.66434	1136.48877	856.45355	507.94806	1100.30054	674.45361	413.49518	1140.71777	724.93274	365.76071	1618.26306	791.27362	197.19044	1592.62390	783.65582	545.50916	1580.97498	861.71375	363.82617	1541.88464	
518	10.340	761.65204	245.86086	571.34937	774.16589	245.23259	481.67023	709.85931	283.14832	111.03206	621.43524	333.18976	69.66052	817.58600	249.60454	39.62787	861.69104	309.79224	73.11539	709.88153	544.02441	582.18286	671.22107	531.37891	468.51651	393.53171	503.78790	250.07547	306.38586	450.51443	261.93076	445.41733	534.45551	119.63204	498.41129	477.34915	122.44221	759.04102	373.90649	561.16150	725.43457	377.58359	119.87370	739.95313	421.06934	567.00189	422.44189	412.69754	243.05769	767.03467	255.15410	362.24350	698.88141	234.91348	483.18234	684.13123	240.51689	367.75354	614.02338	554.18091	535.61481	530.19208	546.37311	447.12488	829.39758	218.49524	896.66174	834.25464	224.98924	782.13715	789.85657	214.20485	747.77142	719.95038	187.48703	885.70892	727.25720	213.02249	769.36108	817.92896	561.26660	847.59735	813.34454	559.91071	708.90051	701.21875	567.15460	852.47443	701.60370	554.06464	716.69562	857.02142	252.73570	1080.09229	669.48956	331.24503	1135.55396	856.86346	506.96921	1102.08618	673.49048	414.09109	1139.92957	722.34058	365.22659	1618.26794	789.09589	196.87247	1592.78357	781.03003	545.14948	1581.08203	859.36652	363.54120	1542.25842	
519	10.360	763.06476	246.51382	571.24255	775.69141	245.87901	481.60974	710.14764	283.45886	111.19297	621.65558	333.52249	69.84436	817.62079	249.62915	39.59735	861.87341	309.81552	72.88640	722.50421	543.29901	582.23218	687.38892	531.92596	466.84506	414.02145	506.84726	242.54694	326.15280	454.50391	252.48793	468.81097	536.74799	113.13106	521.44434	479.19522	117.27808	761.51465	374.40933	561.02496	725.77405	377.88141	119.83265	752.84192	421.04028	566.71570	442.15125	415.41858	236.37024	768.20770	255.68643	362.16562	700.35681	235.53131	483.26941	685.46301	241.09586	367.81744	628.94171	555.01917	532.33496	546.58862	548.45282	442.34592	828.49609	217.64293	896.75409	834.54803	224.64372	782.29944	789.66754	214.17526	747.57562	718.81836	187.86523	885.10864	726.95264	213.71440	768.87476	825.03918	560.72784	848.78632	824.17108	558.90509	710.05615	708.35004	567.81360	850.76874	711.97137	554.63159	714.98236	855.24524	251.72696	1080.76685	667.82361	331.88422	1134.74060	857.19312	505.74194	1103.60352	672.60632	414.84250	1139.08069	719.58105	365.20740	1618.27344	786.73669	196.73506	1592.86755	778.70917	544.88464	1581.07239	856.97601	363.25302	1542.49194	
520	10.380	763.85724	246.78047	571.13599	776.47552	246.06033	481.52640	710.31799	283.68799	111.23524	621.69623	333.37601	70.12995	817.62909	249.64830	39.58088	861.99921	309.83414	72.70913	736.08569	542.89655	581.78168	702.34265	532.25629	465.73544	433.15375	509.75150	235.70575	344.90485	458.35712	243.77908	490.89676	539.36737	107.61243	543.08917	481.43356	112.75981	763.94507	374.69571	560.83075	726.02899	378.10944	119.77991	764.56073	420.96759	566.85724	460.75085	418.15707	230.09555	768.85693	255.84618	362.08920	701.22388	236.08636	483.30334	685.95746	241.84467	367.85352	642.79462	556.11749	530.05396	562.05658	550.16449	438.12711	827.23145	216.62450	896.73462	833.92883	223.73790	782.33594	788.97070	213.95168	747.33569	717.23608	188.38135	884.34833	726.05835	214.42740	768.41614	831.73602	559.89221	850.14935	833.96991	557.90930	711.42401	715.17755	568.70996	849.83490	721.53564	555.38684	713.86884	853.61823	250.52109	1081.34204	666.43457	332.62378	1134.00623	858.53430	504.26172	1104.59387	671.85211	415.39487	1138.27637	717.14465	365.22800	1618.22424	783.96399	196.70085	1593.09912	776.62280	544.88147	1581.04871	854.80280	363.12613	1542.82544	
